<mxfile host="app.diagrams.net" modified="2023-05-29T18:46:48.055Z" agent="Mozilla/5.0 (Windows NT 10.0; Win64; x64) AppleWebKit/537.36 (KHTML, like Gecko) Chrome/113.0.0.0 Safari/537.36" etag="S0lkW2pxGq_soDUnG1Zd" version="21.3.5" type="device">
  <diagram name="PÃ¡gina-1" id="hQvVK7cvd6CQwP3TDFYW">
    <mxGraphModel dx="2514" dy="869" grid="1" gridSize="10" guides="1" tooltips="1" connect="1" arrows="1" fold="1" page="1" pageScale="1" pageWidth="827" pageHeight="1169" math="0" shadow="0">
      <root>
        <mxCell id="0" />
        <mxCell id="1" parent="0" />
        <mxCell id="j9FKQ9DVJ2H4PCv3UH9r-18" style="edgeStyle=none;shape=connector;rounded=0;orthogonalLoop=1;jettySize=auto;html=1;labelBackgroundColor=default;strokeColor=default;fontFamily=Helvetica;fontSize=11;fontColor=default;endArrow=none;endFill=0;" parent="1" source="j9FKQ9DVJ2H4PCv3UH9r-4" target="j9FKQ9DVJ2H4PCv3UH9r-17" edge="1">
          <mxGeometry relative="1" as="geometry" />
        </mxCell>
        <mxCell id="j9FKQ9DVJ2H4PCv3UH9r-27" style="edgeStyle=none;shape=connector;rounded=0;orthogonalLoop=1;jettySize=auto;html=1;labelBackgroundColor=default;strokeColor=default;fontFamily=Helvetica;fontSize=11;fontColor=default;endArrow=none;endFill=0;" parent="1" source="j9FKQ9DVJ2H4PCv3UH9r-4" target="j9FKQ9DVJ2H4PCv3UH9r-22" edge="1">
          <mxGeometry relative="1" as="geometry" />
        </mxCell>
        <mxCell id="j9FKQ9DVJ2H4PCv3UH9r-42" style="edgeStyle=none;shape=connector;rounded=0;orthogonalLoop=1;jettySize=auto;html=1;entryX=0.5;entryY=0;entryDx=0;entryDy=0;labelBackgroundColor=default;strokeColor=default;fontFamily=Helvetica;fontSize=11;fontColor=default;endArrow=none;endFill=0;" parent="1" source="j9FKQ9DVJ2H4PCv3UH9r-4" target="j9FKQ9DVJ2H4PCv3UH9r-41" edge="1">
          <mxGeometry relative="1" as="geometry" />
        </mxCell>
        <mxCell id="j9FKQ9DVJ2H4PCv3UH9r-59" style="edgeStyle=none;shape=connector;rounded=0;orthogonalLoop=1;jettySize=auto;html=1;entryX=0;entryY=0.5;entryDx=0;entryDy=0;labelBackgroundColor=default;strokeColor=default;fontFamily=Helvetica;fontSize=11;fontColor=default;endArrow=none;endFill=0;" parent="1" source="j9FKQ9DVJ2H4PCv3UH9r-4" target="j9FKQ9DVJ2H4PCv3UH9r-58" edge="1">
          <mxGeometry relative="1" as="geometry" />
        </mxCell>
        <mxCell id="j9FKQ9DVJ2H4PCv3UH9r-4" value="Vendedor" style="shape=umlActor;verticalLabelPosition=bottom;verticalAlign=top;html=1;outlineConnect=0;" parent="1" vertex="1">
          <mxGeometry x="-519" y="210" width="40" height="80" as="geometry" />
        </mxCell>
        <mxCell id="WS5sAbaVhpUKd_vWWYad-3" style="rounded=0;orthogonalLoop=1;jettySize=auto;html=1;endArrow=none;endFill=0;" edge="1" parent="1" source="j9FKQ9DVJ2H4PCv3UH9r-5" target="WS5sAbaVhpUKd_vWWYad-2">
          <mxGeometry relative="1" as="geometry" />
        </mxCell>
        <mxCell id="j9FKQ9DVJ2H4PCv3UH9r-5" value="Administrador" style="shape=umlActor;verticalLabelPosition=bottom;verticalAlign=top;html=1;outlineConnect=0;" parent="1" vertex="1">
          <mxGeometry x="-320" y="630" width="41" height="80" as="geometry" />
        </mxCell>
        <mxCell id="j9FKQ9DVJ2H4PCv3UH9r-19" style="edgeStyle=none;shape=connector;rounded=0;orthogonalLoop=1;jettySize=auto;html=1;entryX=0.889;entryY=0.896;entryDx=0;entryDy=0;entryPerimeter=0;labelBackgroundColor=default;strokeColor=default;fontFamily=Helvetica;fontSize=11;fontColor=default;endArrow=none;endFill=0;" parent="1" source="j9FKQ9DVJ2H4PCv3UH9r-6" target="j9FKQ9DVJ2H4PCv3UH9r-17" edge="1">
          <mxGeometry relative="1" as="geometry" />
        </mxCell>
        <mxCell id="j9FKQ9DVJ2H4PCv3UH9r-66" style="edgeStyle=none;shape=connector;rounded=0;orthogonalLoop=1;jettySize=auto;html=1;entryX=0.5;entryY=1;entryDx=0;entryDy=0;labelBackgroundColor=default;strokeColor=default;fontFamily=Helvetica;fontSize=11;fontColor=default;endArrow=none;endFill=0;" parent="1" source="j9FKQ9DVJ2H4PCv3UH9r-6" target="j9FKQ9DVJ2H4PCv3UH9r-54" edge="1">
          <mxGeometry relative="1" as="geometry" />
        </mxCell>
        <mxCell id="j9FKQ9DVJ2H4PCv3UH9r-68" style="edgeStyle=none;shape=connector;rounded=0;orthogonalLoop=1;jettySize=auto;html=1;entryX=0;entryY=0.5;entryDx=0;entryDy=0;labelBackgroundColor=default;strokeColor=default;fontFamily=Helvetica;fontSize=11;fontColor=default;endArrow=none;endFill=0;" parent="1" source="j9FKQ9DVJ2H4PCv3UH9r-6" target="j9FKQ9DVJ2H4PCv3UH9r-56" edge="1">
          <mxGeometry relative="1" as="geometry" />
        </mxCell>
        <mxCell id="j9FKQ9DVJ2H4PCv3UH9r-81" style="edgeStyle=none;shape=connector;rounded=0;orthogonalLoop=1;jettySize=auto;html=1;entryX=1;entryY=0.5;entryDx=0;entryDy=0;labelBackgroundColor=default;strokeColor=default;fontFamily=Helvetica;fontSize=11;fontColor=default;endArrow=none;endFill=0;" parent="1" source="j9FKQ9DVJ2H4PCv3UH9r-6" target="j9FKQ9DVJ2H4PCv3UH9r-58" edge="1">
          <mxGeometry relative="1" as="geometry" />
        </mxCell>
        <mxCell id="j9FKQ9DVJ2H4PCv3UH9r-82" style="edgeStyle=none;shape=connector;rounded=0;orthogonalLoop=1;jettySize=auto;html=1;entryX=0.5;entryY=1;entryDx=0;entryDy=0;labelBackgroundColor=default;strokeColor=default;fontFamily=Helvetica;fontSize=11;fontColor=default;endArrow=none;endFill=0;" parent="1" source="j9FKQ9DVJ2H4PCv3UH9r-6" target="j9FKQ9DVJ2H4PCv3UH9r-52" edge="1">
          <mxGeometry relative="1" as="geometry" />
        </mxCell>
        <mxCell id="j9FKQ9DVJ2H4PCv3UH9r-6" value="Comprador" style="shape=umlActor;verticalLabelPosition=bottom;verticalAlign=top;html=1;outlineConnect=0;" parent="1" vertex="1">
          <mxGeometry x="-110" y="205" width="40" height="80" as="geometry" />
        </mxCell>
        <mxCell id="j9FKQ9DVJ2H4PCv3UH9r-14" style="edgeStyle=none;shape=connector;rounded=0;orthogonalLoop=1;jettySize=auto;html=1;labelBackgroundColor=default;strokeColor=default;fontFamily=Helvetica;fontSize=11;fontColor=default;endArrow=none;endFill=0;" parent="1" source="j9FKQ9DVJ2H4PCv3UH9r-13" target="j9FKQ9DVJ2H4PCv3UH9r-6" edge="1">
          <mxGeometry relative="1" as="geometry" />
        </mxCell>
        <mxCell id="j9FKQ9DVJ2H4PCv3UH9r-15" style="edgeStyle=none;shape=connector;rounded=0;orthogonalLoop=1;jettySize=auto;html=1;labelBackgroundColor=default;strokeColor=default;fontFamily=Helvetica;fontSize=11;fontColor=default;endArrow=none;endFill=0;" parent="1" source="j9FKQ9DVJ2H4PCv3UH9r-13" target="j9FKQ9DVJ2H4PCv3UH9r-4" edge="1">
          <mxGeometry relative="1" as="geometry" />
        </mxCell>
        <mxCell id="j9FKQ9DVJ2H4PCv3UH9r-16" style="edgeStyle=none;shape=connector;rounded=0;orthogonalLoop=1;jettySize=auto;html=1;labelBackgroundColor=default;strokeColor=default;fontFamily=Helvetica;fontSize=11;fontColor=default;endArrow=none;endFill=0;" parent="1" source="j9FKQ9DVJ2H4PCv3UH9r-13" target="j9FKQ9DVJ2H4PCv3UH9r-5" edge="1">
          <mxGeometry relative="1" as="geometry" />
        </mxCell>
        <mxCell id="j9FKQ9DVJ2H4PCv3UH9r-13" value="Login" style="ellipse;whiteSpace=wrap;html=1;fontFamily=Helvetica;fontSize=11;fontColor=default;" parent="1" vertex="1">
          <mxGeometry x="-369.5" y="310" width="140" height="70" as="geometry" />
        </mxCell>
        <mxCell id="j9FKQ9DVJ2H4PCv3UH9r-17" value="Realizar Cadastro" style="ellipse;whiteSpace=wrap;html=1;fontFamily=Helvetica;fontSize=11;fontColor=default;" parent="1" vertex="1">
          <mxGeometry x="-369.5" y="110" width="140" height="70" as="geometry" />
        </mxCell>
        <mxCell id="j9FKQ9DVJ2H4PCv3UH9r-22" value="CRUD Produto" style="ellipse;whiteSpace=wrap;html=1;fontFamily=Helvetica;fontSize=11;fontColor=default;" parent="1" vertex="1">
          <mxGeometry x="-720" y="260" width="140" height="70" as="geometry" />
        </mxCell>
        <mxCell id="j9FKQ9DVJ2H4PCv3UH9r-41" value="Verificar Vendas &lt;br&gt;Realizadas&lt;br&gt;e Dados dos produtos&amp;nbsp;" style="ellipse;whiteSpace=wrap;html=1;fontFamily=Helvetica;fontSize=11;fontColor=default;" parent="1" vertex="1">
          <mxGeometry x="-569" y="390" width="140" height="70" as="geometry" />
        </mxCell>
        <mxCell id="j9FKQ9DVJ2H4PCv3UH9r-45" style="edgeStyle=none;shape=connector;rounded=0;orthogonalLoop=1;jettySize=auto;html=1;labelBackgroundColor=default;strokeColor=default;fontFamily=Helvetica;fontSize=11;fontColor=default;endArrow=none;endFill=0;" parent="1" source="j9FKQ9DVJ2H4PCv3UH9r-44" target="j9FKQ9DVJ2H4PCv3UH9r-5" edge="1">
          <mxGeometry relative="1" as="geometry" />
        </mxCell>
        <mxCell id="j9FKQ9DVJ2H4PCv3UH9r-49" style="edgeStyle=none;shape=connector;rounded=0;orthogonalLoop=1;jettySize=auto;html=1;entryX=0.5;entryY=1;entryDx=0;entryDy=0;labelBackgroundColor=default;strokeColor=default;fontFamily=Helvetica;fontSize=11;fontColor=default;endArrow=open;endFill=0;dashed=1;" parent="1" source="j9FKQ9DVJ2H4PCv3UH9r-44" target="j9FKQ9DVJ2H4PCv3UH9r-47" edge="1">
          <mxGeometry relative="1" as="geometry" />
        </mxCell>
        <mxCell id="j9FKQ9DVJ2H4PCv3UH9r-50" value="&amp;lt;&amp;lt;extend&amp;gt;&amp;gt;" style="edgeLabel;html=1;align=center;verticalAlign=middle;resizable=0;points=[];fontSize=11;fontFamily=Helvetica;fontColor=default;" parent="j9FKQ9DVJ2H4PCv3UH9r-49" vertex="1" connectable="0">
          <mxGeometry x="-0.543" y="2" relative="1" as="geometry">
            <mxPoint x="33" y="-17" as="offset" />
          </mxGeometry>
        </mxCell>
        <mxCell id="WS5sAbaVhpUKd_vWWYad-4" value="&amp;lt;&amp;lt;extend&amp;gt;&amp;gt;" style="edgeStyle=none;shape=connector;rounded=0;orthogonalLoop=1;jettySize=auto;html=1;labelBackgroundColor=default;strokeColor=default;fontFamily=Helvetica;fontSize=11;fontColor=default;endArrow=open;endFill=0;dashed=1;" edge="1" parent="1" source="j9FKQ9DVJ2H4PCv3UH9r-44" target="WS5sAbaVhpUKd_vWWYad-2">
          <mxGeometry relative="1" as="geometry" />
        </mxCell>
        <mxCell id="j9FKQ9DVJ2H4PCv3UH9r-44" value="Verificar e Responder&lt;br&gt;solicitaÃ§Ãµes de suporte&lt;br&gt;e denuncias" style="ellipse;whiteSpace=wrap;html=1;fontFamily=Helvetica;fontSize=11;fontColor=default;" parent="1" vertex="1">
          <mxGeometry x="-369.5" y="780" width="140" height="70" as="geometry" />
        </mxCell>
        <mxCell id="j9FKQ9DVJ2H4PCv3UH9r-48" style="edgeStyle=none;shape=connector;rounded=0;orthogonalLoop=1;jettySize=auto;html=1;labelBackgroundColor=default;strokeColor=default;fontFamily=Helvetica;fontSize=11;fontColor=default;endArrow=none;endFill=0;" parent="1" source="j9FKQ9DVJ2H4PCv3UH9r-47" target="j9FKQ9DVJ2H4PCv3UH9r-5" edge="1">
          <mxGeometry relative="1" as="geometry" />
        </mxCell>
        <mxCell id="j9FKQ9DVJ2H4PCv3UH9r-47" value="Bloquear Produtos de usuÃ¡rios&amp;nbsp;" style="ellipse;whiteSpace=wrap;html=1;fontFamily=Helvetica;fontSize=11;fontColor=default;" parent="1" vertex="1">
          <mxGeometry x="-170" y="690" width="140" height="70" as="geometry" />
        </mxCell>
        <mxCell id="j9FKQ9DVJ2H4PCv3UH9r-52" value="Pesquisar e receber recomendaÃ§Ãµes de produtos" style="ellipse;whiteSpace=wrap;html=1;fontFamily=Helvetica;fontSize=11;fontColor=default;" parent="1" vertex="1">
          <mxGeometry x="-140" y="50" width="140" height="70" as="geometry" />
        </mxCell>
        <mxCell id="j9FKQ9DVJ2H4PCv3UH9r-54" value="Favoritar produtos" style="ellipse;whiteSpace=wrap;html=1;fontFamily=Helvetica;fontSize=11;fontColor=default;" parent="1" vertex="1">
          <mxGeometry x="50" y="80" width="140" height="70" as="geometry" />
        </mxCell>
        <mxCell id="WS5sAbaVhpUKd_vWWYad-5" value="&amp;lt;&amp;lt;extend&amp;gt;&amp;gt;" style="edgeStyle=none;shape=connector;rounded=0;orthogonalLoop=1;jettySize=auto;html=1;labelBackgroundColor=default;strokeColor=default;fontFamily=Helvetica;fontSize=11;fontColor=default;endArrow=open;endFill=0;" edge="1" parent="1" source="j9FKQ9DVJ2H4PCv3UH9r-56" target="j9FKQ9DVJ2H4PCv3UH9r-71">
          <mxGeometry relative="1" as="geometry" />
        </mxCell>
        <mxCell id="j9FKQ9DVJ2H4PCv3UH9r-56" value="Contatar vendedores" style="ellipse;whiteSpace=wrap;html=1;fontFamily=Helvetica;fontSize=11;fontColor=default;" parent="1" vertex="1">
          <mxGeometry x="110" y="210" width="140" height="70" as="geometry" />
        </mxCell>
        <mxCell id="j9FKQ9DVJ2H4PCv3UH9r-86" style="edgeStyle=none;shape=connector;rounded=0;orthogonalLoop=1;jettySize=auto;html=1;labelBackgroundColor=default;strokeColor=default;fontFamily=Helvetica;fontSize=11;fontColor=default;endArrow=none;endFill=0;" parent="1" source="j9FKQ9DVJ2H4PCv3UH9r-57" target="j9FKQ9DVJ2H4PCv3UH9r-6" edge="1">
          <mxGeometry relative="1" as="geometry" />
        </mxCell>
        <mxCell id="j9FKQ9DVJ2H4PCv3UH9r-90" style="edgeStyle=none;shape=connector;rounded=0;orthogonalLoop=1;jettySize=auto;html=1;labelBackgroundColor=default;strokeColor=default;fontFamily=Helvetica;fontSize=11;fontColor=default;endArrow=open;endFill=0;dashed=1;" parent="1" source="j9FKQ9DVJ2H4PCv3UH9r-57" target="j9FKQ9DVJ2H4PCv3UH9r-71" edge="1">
          <mxGeometry relative="1" as="geometry" />
        </mxCell>
        <mxCell id="j9FKQ9DVJ2H4PCv3UH9r-92" value="&amp;lt;&amp;lt;include&amp;gt;&amp;gt;" style="edgeLabel;html=1;align=center;verticalAlign=middle;resizable=0;points=[];fontSize=11;fontFamily=Helvetica;fontColor=default;" parent="j9FKQ9DVJ2H4PCv3UH9r-90" vertex="1" connectable="0">
          <mxGeometry x="-0.3775" relative="1" as="geometry">
            <mxPoint x="18" y="-8" as="offset" />
          </mxGeometry>
        </mxCell>
        <mxCell id="j9FKQ9DVJ2H4PCv3UH9r-57" value="Visualizar histÃ³rico de pedidos&lt;br&gt;e detalhes de pedidos&lt;br&gt;feitos" style="ellipse;whiteSpace=wrap;html=1;fontFamily=Helvetica;fontSize=11;fontColor=default;" parent="1" vertex="1">
          <mxGeometry x="-140" y="400" width="140" height="70" as="geometry" />
        </mxCell>
        <mxCell id="j9FKQ9DVJ2H4PCv3UH9r-58" value="Conversa no chat" style="ellipse;whiteSpace=wrap;html=1;fontFamily=Helvetica;fontSize=11;fontColor=default;" parent="1" vertex="1">
          <mxGeometry x="-369.5" y="215" width="140" height="70" as="geometry" />
        </mxCell>
        <mxCell id="j9FKQ9DVJ2H4PCv3UH9r-85" style="edgeStyle=none;shape=connector;rounded=0;orthogonalLoop=1;jettySize=auto;html=1;labelBackgroundColor=default;strokeColor=default;fontFamily=Helvetica;fontSize=11;fontColor=default;endArrow=none;endFill=0;" parent="1" source="j9FKQ9DVJ2H4PCv3UH9r-71" target="j9FKQ9DVJ2H4PCv3UH9r-6" edge="1">
          <mxGeometry relative="1" as="geometry" />
        </mxCell>
        <mxCell id="j9FKQ9DVJ2H4PCv3UH9r-71" value="Avaliar Vendedor" style="ellipse;whiteSpace=wrap;html=1;fontFamily=Helvetica;fontSize=11;fontColor=default;" parent="1" vertex="1">
          <mxGeometry x="40" y="330" width="140" height="70" as="geometry" />
        </mxCell>
        <mxCell id="WS5sAbaVhpUKd_vWWYad-2" value="Bloquear usuÃ¡rios" style="ellipse;whiteSpace=wrap;html=1;fontFamily=Helvetica;fontSize=11;fontColor=default;" vertex="1" parent="1">
          <mxGeometry x="-569" y="700" width="140" height="70" as="geometry" />
        </mxCell>
      </root>
    </mxGraphModel>
  </diagram>
</mxfile>
